<svg width="1398" height="1727" viewBox="0 0 1398 1727" fill="none" xmlns="http://www.w3.org/2000/svg">
<rect x="158" y="312" width="1086" height="353" rx="143" fill="black"/>
<rect x="394" width="613" height="538" rx="143" fill="black"/>
<path d="M245.566 872.856C256.777 833.861 292.45 807 333.024 807H1072.86C1113.73 807 1149.58 834.238 1160.53 873.605L1365.89 1611.61C1382.03 1669.6 1338.42 1727 1278.22 1727H120.849C60.3278 1727 16.669 1669.02 33.3914 1610.86L245.566 872.856Z" fill="black"/>
<path d="M703 1231L858.885 806.5H547.115L703 1231Z" fill="white"/>
<path d="M699 899L819 1352.15L699.004 1539L579 1352.15L699 899Z" fill="#FF0000"/>
</svg>
